HIERARCHY
ROOT Hips
{
	OFFSET -0.031289 103.266464 0.443827
	CHANNELS 6 Xposition Yposition Zposition Xrotation Yrotation Zrotation 
	JOINT Spine
	{
		OFFSET -0.002448 12.777534 0.315252
		CHANNELS 3 Xrotation Yrotation Zrotation
		JOINT Spine1
		{
			OFFSET -0.002040 5.816851 0.032640
			CHANNELS 3 Xrotation Yrotation Zrotation
			JOINT Spine1_split
			{
				OFFSET -0.002040 5.816851 0.032640
				CHANNELS 3 Xrotation Yrotation Zrotation
				JOINT Spine2
				{
					OFFSET -0.002040 5.816851 0.032640
					CHANNELS 3 Xrotation Yrotation Zrotation
					JOINT Neck
					{
						OFFSET -0.003672 21.199554 -0.826883
						CHANNELS 3 Xrotation Yrotation Zrotation
						JOINT Head
						{
							OFFSET -0.000000 20.442154 4.834770
							CHANNELS 3 Xrotation Yrotation Zrotation
							JOINT HeadTop_End
							{
								OFFSET 0.000000 34.668427 4.968426
								CHANNELS 3 Xrotation Yrotation Zrotation
								End Site
								{
									OFFSET 0.000000 0.000000 0.000000
								}
							}
						}
					}
					JOINT LeftShoulder
					{
						OFFSET 3.288174 8.794213 -1.372251
						CHANNELS 3 Xrotation Yrotation Zrotation
						JOINT LeftShoulder_split
						{
							OFFSET 3.288174 8.794213 -1.372251
							CHANNELS 3 Xrotation Yrotation Zrotation
							JOINT LeftArm
							{
								OFFSET 11.953302 -2.279037 -0.146175
								CHANNELS 3 Xrotation Yrotation Zrotation
								JOINT LeftForeArm
								{
									OFFSET 18.448874 0.000061 -0.000024
									CHANNELS 3 Xrotation Yrotation Zrotation
									JOINT LeftHand
									{
										OFFSET 29.527794 0.000092 -0.000021
										CHANNELS 3 Xrotation Yrotation Zrotation
										JOINT LeftHandThumb1
										{
											OFFSET 10.739838 -2.369766 9.225297
											CHANNELS 3 Xrotation Yrotation Zrotation
											JOINT LeftHandThumb2
											{
												OFFSET 4.926178 -2.844101 2.844107
												CHANNELS 3 Xrotation Yrotation Zrotation
												JOINT LeftHandThumb3
												{
													OFFSET 4.614899 -2.664444 2.664389
													CHANNELS 3 Xrotation Yrotation Zrotation
													JOINT LeftHandThumb4
													{
														OFFSET 4.432472 -2.559052 2.559026
														CHANNELS 3 Xrotation Yrotation Zrotation
														End Site
														{
															OFFSET 0.000000 0.000000 0.000000
														}
													}
												}
											}
										}
										JOINT LeftHandIndex1
										{
											OFFSET 26.467659 0.187592 6.405249
											CHANNELS 3 Xrotation Yrotation Zrotation
											JOINT LeftHandIndex2
											{
												OFFSET 8.792877 0.000046 -0.000014
												CHANNELS 3 Xrotation Yrotation Zrotation
												JOINT LeftHandIndex3
												{
													OFFSET 10.075157 0.000031 -0.000014
													CHANNELS 3 Xrotation Yrotation Zrotation
													End Site
													{
														OFFSET 0.000000 0.000000 0.000000
													}
												}
											}
										}
										JOINT LeftHandMiddle1
										{
											OFFSET 25.764420 0.000076 -0.000063
											CHANNELS 3 Xrotation Yrotation Zrotation
											JOINT LeftHandMiddle2
											{
												OFFSET 9.368942 -0.468658 -0.500905
												CHANNELS 3 Xrotation Yrotation Zrotation
												JOINT LeftHandMiddle3
												{
													OFFSET 10.758461 -0.538101 0.000023
													CHANNELS 3 Xrotation Yrotation Zrotation
													End Site
													{
														OFFSET 0.000000 0.000000 0.000000
													}
												}
											}
										}
										JOINT LeftHandRing1
										{
											OFFSET 24.660912 0.144745 -6.225863
											CHANNELS 3 Xrotation Yrotation Zrotation
											JOINT LeftHandRing2
											{
												OFFSET 9.393806 0.000046 -0.000017
												CHANNELS 3 Xrotation Yrotation Zrotation
												JOINT LeftHandRing3
												{
													OFFSET 9.928528 -0.000015 -0.000007
													CHANNELS 3 Xrotation Yrotation Zrotation
													End Site
													{
														OFFSET 0.000000 0.000000 0.000000
													}
												}
											}
										}
										JOINT LeftHandPinky1
										{
											OFFSET 23.655312 0.125748 -12.815530
											CHANNELS 3 Xrotation Yrotation Zrotation
											JOINT LeftHandPinky2
											{
												OFFSET 8.425102 0.000031 -0.000015
												CHANNELS 3 Xrotation Yrotation Zrotation
												JOINT LeftHandPinky3
												{
													OFFSET 8.146988 0.000015 -0.000021
													CHANNELS 3 Xrotation Yrotation Zrotation
													End Site
													{
														OFFSET 0.000000 0.000000 0.000000
													}
												}
											}
										}
									}
								}
							}
						}
					}
					JOINT RightShoulder
					{
						OFFSET -3.249397 8.794213 -1.372251
						CHANNELS 3 Xrotation Yrotation Zrotation
						JOINT RightShoulder_split
						{
							OFFSET -3.249397 8.794213 -1.372251
							CHANNELS 3 Xrotation Yrotation Zrotation
							JOINT RightArm
							{
								OFFSET -11.953302 -2.279037 -0.146175
								CHANNELS 3 Xrotation Yrotation Zrotation
								JOINT RightForeArm
								{
									OFFSET -18.448874 0.000061 -0.000024
									CHANNELS 3 Xrotation Yrotation Zrotation
									JOINT RightHand
									{
										OFFSET -29.527794 0.000092 -0.000021
										CHANNELS 3 Xrotation Yrotation Zrotation
										JOINT RightHandThumb1
										{
											OFFSET -10.739838 -2.369766 9.225297
											CHANNELS 3 Xrotation Yrotation Zrotation
											JOINT RightHandThumb2
											{
												OFFSET -4.926178 -2.844101 2.844107
												CHANNELS 3 Xrotation Yrotation Zrotation
												JOINT RightHandThumb3
												{
													OFFSET -4.614899 -2.664444 2.664389
													CHANNELS 3 Xrotation Yrotation Zrotation
													JOINT RightHandThumb4
													{
														OFFSET -4.432472 -2.559052 2.559026
														CHANNELS 3 Xrotation Yrotation Zrotation
														End Site
														{
															OFFSET 0.000000 0.000000 0.000000
														}
													}
												}
											}
										}
										JOINT RightHandIndex1
										{
											OFFSET -26.467659 0.187592 6.405249
											CHANNELS 3 Xrotation Yrotation Zrotation
											JOINT RightHandIndex2
											{
												OFFSET -8.792877 0.000046 -0.000014
												CHANNELS 3 Xrotation Yrotation Zrotation
												JOINT RightHandIndex3
												{
													OFFSET -10.075157 0.000031 -0.000014
													CHANNELS 3 Xrotation Yrotation Zrotation
													End Site
													{
														OFFSET 0.000000 0.000000 0.000000
													}
												}
											}
										}
										JOINT RightHandMiddle1
										{
											OFFSET -25.764420 0.000076 -0.000063
											CHANNELS 3 Xrotation Yrotation Zrotation
											JOINT RightHandMiddle2
											{
												OFFSET -9.368942 -0.468658 -0.500905
												CHANNELS 3 Xrotation Yrotation Zrotation
												JOINT RightHandMiddle3
												{
													OFFSET -10.758461 -0.538101 0.000023
													CHANNELS 3 Xrotation Yrotation Zrotation
													End Site
													{
														OFFSET 0.000000 0.000000 0.000000
													}
												}
											}
										}
										JOINT RightHandRing1
										{
											OFFSET -24.660912 0.144745 -6.225863
											CHANNELS 3 Xrotation Yrotation Zrotation
											JOINT RightHandRing2
											{
												OFFSET -9.393806 0.000046 -0.000017
												CHANNELS 3 Xrotation Yrotation Zrotation
												JOINT RightHandRing3
												{
													OFFSET -9.928528 -0.000015 -0.000007
													CHANNELS 3 Xrotation Yrotation Zrotation
													End Site
													{
														OFFSET 0.000000 0.000000 0.000000
													}
												}
											}
										}
										JOINT RightHandPinky1
										{
											OFFSET -23.655312 0.125748 -12.815530
											CHANNELS 3 Xrotation Yrotation Zrotation
											JOINT RightHandPinky2
											{
												OFFSET -8.425102 0.000031 -0.000015
												CHANNELS 3 Xrotation Yrotation Zrotation
												JOINT RightHandPinky3
												{
													OFFSET -8.146980 0.000015 -0.000021
													CHANNELS 3 Xrotation Yrotation Zrotation
													End Site
													{
														OFFSET 0.000000 0.000000 0.000000
													}
												}
											}
										}
									}
								}
							}
						}
					}
				}
			}
		}
	}
	JOINT LeftUpLeg
	{
		OFFSET 11.394079 -6.187805 -0.413817
		CHANNELS 3 Xrotation Yrotation Zrotation
		JOINT LeftLeg
		{
			OFFSET 0.435522 -32.302582 3.732836
			CHANNELS 3 Xrotation Yrotation Zrotation
			JOINT LeftFoot
			{
				OFFSET -0.422448 -48.265030 -6.423308
				CHANNELS 3 Xrotation Yrotation Zrotation
				JOINT LeftToeBase
				{
					OFFSET 4.230914 -16.068172 23.438400
					CHANNELS 3 Xrotation Yrotation Zrotation
					JOINT LeftToe_End
					{
						OFFSET 4.510741 0.695408 19.974636
						CHANNELS 3 Xrotation Yrotation Zrotation
						End Site
						{
							OFFSET 0.000000 0.000000 0.000000
						}
					}
				}
			}
		}
	}
	JOINT RightUpLeg
	{
		OFFSET -11.333660 -6.187805 -0.413817
		CHANNELS 3 Xrotation Yrotation Zrotation
		JOINT RightLeg
		{
			OFFSET -0.425090 -32.302704 3.733010
			CHANNELS 3 Xrotation Yrotation Zrotation
			JOINT RightFoot
			{
				OFFSET 0.438313 -48.264862 -6.423481
				CHANNELS 3 Xrotation Yrotation Zrotation
				JOINT RightToeBase
				{
					OFFSET -4.230914 -16.068172 23.438402
					CHANNELS 3 Xrotation Yrotation Zrotation
					JOINT RightToe_End
					{
						OFFSET -4.510741 0.695407 19.974638
						CHANNELS 3 Xrotation Yrotation Zrotation
						End Site
						{
							OFFSET 0.000000 0.000000 0.000000
						}
					}
				}
			}
		}
	}
}
MOTION
Frames: 4
Frame Time: 0.016667
-0.214264 100.225784 0.696937 -3.654459 -0.246542 -3.248108 4.749142 1.349833 0.424123 2.572229 0.188490 0.804270 0.000000 0.000000 0.000000 2.570294 0.195339 0.808666 -1.342908 -0.050186 -0.205819 -4.952819 -0.368062 -0.267113 0.000000 -0.000000 0.000000 0.348350 0.827242 -4.748664 0.000000 0.000000 0.000000 -4.646799 -26.876598 -75.700639 0.000034 -6.250268 0.000129 7.145692 -3.125680 -5.540826 3.126824 15.624816 9.123085 3.432330 10.370384 1.774780 -0.889600 8.770200 6.253800 0.000003 0.000000 -0.000000 1.062074 3.611194 -24.214728 0.429790 2.399132 -20.310251 -0.000001 0.000003 0.000002 -0.045410 1.285624 -23.352562 1.329106 6.546114 -31.372657 0.000000 0.000002 -0.000002 1.540192 4.598172 -28.927859 2.017744 4.874471 -44.953023 -0.000000 0.000002 0.000001 3.941571 8.476788 -30.818462 3.047059 1.630715 -56.173518 0.000000 0.000001 0.000000 0.341724 -1.804782 5.898575 0.000000 0.000000 0.000000 -7.105172 8.586868 75.868047 0.000044 8.316282 -0.000125 28.420919 5.934858 1.328660 1.867777 -17.797060 -10.682354 1.780564 -7.960661 -2.686466 -3.113186 -5.699748 -6.971467 0.000002 0.000000 -0.000002 2.939107 -7.151983 28.368016 0.213577 -1.713599 14.207750 -0.000000 -0.000000 -0.000001 2.496660 -5.818476 28.467496 0.862836 -5.767521 23.501764 -0.000002 -0.000002 0.000001 5.611469 -9.970968 35.559765 1.257384 -3.993516 34.941817 0.000001 0.000000 -0.000001 7.033493 -11.050082 38.884848 1.961736 -4.845371 44.062940 0.000002 -0.000000 -0.000001 -10.233245 13.535810 9.308131 22.848221 10.113349 2.542022 -9.083941 3.789213 -6.968116 -4.613305 0.000003 -0.000002 -0.000000 -0.000002 -0.000000 -11.338662 -4.341472 -1.119992 15.274772 -10.263437 -3.590033 2.062007 -12.992807 6.904027 -4.229439 0.000020 0.000002 -0.000000 -0.000001 -0.000000 
-0.210038 100.224068 0.674282 -3.641276 -0.286157 -3.261433 4.718503 1.368620 0.434675 2.581957 0.191239 0.804231 0.000000 0.000000 0.000000 2.580008 0.197996 0.808711 -1.369563 -0.055532 -0.193555 -4.967041 -0.376295 -0.278138 -0.000000 0.000000 0.000000 0.347454 0.837247 -4.741860 0.000000 0.000000 0.000000 -4.549967 -26.726826 -75.692204 0.000026 -6.131438 0.000120 7.330124 -3.092634 -5.608781 3.123995 15.662279 9.143531 3.432332 10.370382 1.774780 -0.908650 8.737333 6.258652 0.000002 0.000001 -0.000001 1.062360 3.619825 -24.158688 0.429786 2.399147 -20.310237 0.000001 -0.000002 -0.000000 -0.026972 1.322007 -23.250123 1.327570 6.543856 -31.349592 -0.000001 0.000000 -0.000003 1.573345 4.672946 -28.769208 2.013381 4.870109 -44.901565 -0.000000 0.000004 -0.000001 3.981090 8.586668 -30.616992 3.039748 1.625792 -56.100315 0.000000 0.000003 0.000000 0.343149 -1.818727 5.908517 0.000000 0.000000 0.000000 -7.059973 8.519280 75.873211 0.000042 8.282908 -0.000087 28.431952 5.887385 1.309015 1.882269 -17.786632 -10.653814 1.780552 -7.960660 -2.686492 -3.123626 -5.679288 -6.974461 -0.000002 -0.000001 -0.000001 2.926275 -7.122454 28.408365 0.213566 -1.713601 14.207658 0.000001 0.000001 0.000000 2.486031 -5.798265 28.492868 0.862833 -5.767516 23.501632 -0.000002 -0.000000 -0.000000 5.605820 -9.961236 35.565942 1.257370 -3.993502 34.941574 -0.000001 0.000003 0.000000 7.030896 -11.049737 38.876279 1.961731 -4.845387 44.062916 0.000000 -0.000001 -0.000000 -10.277863 13.560655 9.351773 22.877889 10.108039 2.504367 -9.086926 3.785057 -6.948932 -4.622847 -0.000014 0.000001 -0.000000 0.000000 0.000000 -11.368944 -4.341683 -1.121499 15.264120 -10.264573 -3.567342 2.083541 -12.954476 6.885437 -4.230475 0.000002 0.000002 0.000000 0.000000 0.000000 
-0.206780 100.221657 0.652006 -3.635492 -0.331587 -3.275843 4.702363 1.393218 0.445141 2.590687 0.194722 0.803345 0.000000 0.000000 0.000000 2.588720 0.201398 0.807921 -1.393973 -0.062377 -0.180075 -4.978305 -0.387753 -0.294712 -0.000000 0.000000 0.000000 0.346954 0.834368 -4.735759 0.000000 0.000000 0.000000 -4.475070 -26.567194 -75.686556 0.000022 -6.012263 0.000122 7.469145 -3.067761 -5.676804 3.120409 15.700988 9.165818 3.432326 10.370384 1.774781 -0.930967 8.698926 6.264382 0.000002 0.000002 0.000001 1.063844 3.631611 -24.100842 0.429798 2.399124 -20.310239 -0.000001 0.000001 -0.000001 -0.005382 1.364938 -23.128755 1.325226 6.540441 -31.314829 0.000001 0.000000 -0.000000 1.609926 4.759602 -28.570545 2.006760 4.863481 -44.823666 -0.000001 -0.000002 0.000001 4.021516 8.714522 -30.358726 3.028635 1.618333 -55.989076 0.000000 -0.000000 -0.000001 0.344004 -1.820554 5.917557 0.000000 0.000000 0.000000 -7.013221 8.468906 75.875643 0.000038 8.268110 -0.000074 28.431284 5.861969 1.295931 1.894127 -17.775543 -10.629377 1.780566 -7.960645 -2.686461 -3.131423 -5.664047 -6.976763 -0.000000 -0.000000 0.000000 2.912448 -7.086028 28.480478 0.213581 -1.713607 14.207612 0.000002 0.000000 0.000002 2.473117 -5.772904 28.538248 0.862826 -5.767494 23.501470 -0.000000 -0.000001 -0.000001 5.598066 -9.947697 35.577322 1.257359 -3.993486 34.941366 0.000001 -0.000001 0.000001 7.025513 -11.047378 38.861150 1.961725 -4.845378 44.062933 0.000001 -0.000001 -0.000003 -10.314745 13.584246 9.393778 22.909447 10.102763 2.471438 -9.091482 3.788099 -6.932975 -4.631429 -0.000003 -0.000002 0.000000 -0.000003 0.000000 -11.394273 -4.339392 -1.119108 15.256565 -10.264991 -3.547677 2.103515 -12.912209 6.867327 -4.230213 0.000001 0.000002 -0.000000 0.000001 0.000000 
-0.203758 100.218323 0.630318 -3.636956 -0.377520 -3.289204 4.701178 1.419975 0.455464 2.598472 0.198443 0.801674 0.000000 0.000000 0.000000 2.596480 0.205050 0.806348 -1.416041 -0.070100 -0.166236 -4.986066 -0.401495 -0.314482 0.000000 -0.000000 -0.000000 0.346657 0.819096 -4.726649 0.000000 0.000000 0.000000 -4.417427 -26.401657 -75.686269 0.000039 -5.897916 0.000139 7.556729 -3.047012 -5.742928 3.116128 15.736240 9.187766 3.432328 10.370383 1.774781 -0.954519 8.658409 6.270453 -0.000001 0.000002 0.000001 1.065714 3.644129 -24.043902 0.429793 2.399129 -20.310225 0.000000 0.000000 -0.000000 0.016808 1.409496 -22.993912 1.322203 6.535997 -31.269484 -0.000001 -0.000000 -0.000003 1.645454 4.849928 -28.340381 1.998144 4.854824 -44.721835 0.000001 -0.000001 -0.000001 4.056881 8.849379 -30.054294 3.014109 1.608515 -55.843432 -0.000000 0.000004 0.000000 0.344245 -1.806889 5.926682 0.000000 0.000000 0.000000 -6.964256 8.428249 75.873553 0.000046 8.267149 -0.000117 28.424565 5.854404 1.284664 1.903464 -17.765261 -10.609491 1.780551 -7.960659 -2.686495 -3.136649 -5.653782 -6.978306 0.000002 -0.000001 0.000001 2.897895 -7.043759 28.580471 0.213577 -1.713592 14.207578 -0.000003 0.000001 -0.000001 2.458774 -5.743918 28.602216 0.862813 -5.767469 23.501339 -0.000001 -0.000001 0.000001 5.589931 -9.932288 35.595763 1.257336 -3.993458 34.941089 0.000001 0.000004 0.000000 7.019911 -11.045097 38.843887 1.961727 -4.845378 44.062910 -0.000000 -0.000003 0.000000 -10.343499 13.603246 9.428758 22.941953 10.097994 2.446132 -9.096864 3.798278 -6.920375 -4.637890 0.000005 -0.000000 -0.000000 0.000002 -0.000000 -11.415702 -4.335453 -1.115222 15.255021 -10.264797 -3.532446 2.120859 -12.870204 6.851893 -4.228319 0.000002 -0.000004 -0.000000 0.000000 0.000000 
